<svg width="43" height="34" viewBox="0 0 43 34" fill="none" xmlns="http://www.w3.org/2000/svg">
<path d="M20.9299 8.67473L7.16723 20.0099V32.2438C7.16723 32.5605 7.29307 32.8643 7.51705 33.0883C7.74104 33.3123 8.04482 33.4381 8.36159 33.4381L16.7265 33.4165C17.0423 33.4149 17.3445 33.2884 17.5672 33.0646C17.7899 32.8408 17.9149 32.5379 17.9149 32.2221V25.0777C17.9149 24.7609 18.0407 24.4571 18.2647 24.2331C18.4887 24.0091 18.7925 23.8833 19.1093 23.8833H23.8867C24.2034 23.8833 24.5072 24.0091 24.7312 24.2331C24.9552 24.4571 25.081 24.7609 25.081 25.0777V32.2169C25.0805 32.3741 25.1111 32.5298 25.1709 32.6751C25.2307 32.8205 25.3186 32.9526 25.4295 33.0639C25.5405 33.1752 25.6723 33.2635 25.8175 33.3237C25.9626 33.384 26.1182 33.415 26.2754 33.415L34.6373 33.4381C34.9541 33.4381 35.2579 33.3123 35.4819 33.0883C35.7059 32.8643 35.8317 32.5605 35.8317 32.2438V20.0017L22.072 8.67473C21.9102 8.54434 21.7087 8.47324 21.501 8.47324C21.2932 8.47324 21.0917 8.54434 20.9299 8.67473ZM42.6694 16.379L36.4289 11.2351V0.895764C36.4289 0.658193 36.3345 0.430352 36.1665 0.262363C35.9985 0.0943751 35.7707 0 35.5331 0H31.3529C31.1153 0 30.8875 0.0943751 30.7195 0.262363C30.5515 0.430352 30.4571 0.658193 30.4571 0.895764V6.31588L23.774 0.817385C23.1326 0.289615 22.3278 0.00105502 21.4972 0.00105502C20.6666 0.00105502 19.8618 0.289615 19.2205 0.817385L0.325087 16.379C0.234381 16.454 0.159337 16.5461 0.104241 16.6501C0.049146 16.7541 0.0150793 16.8679 0.00398776 16.9851C-0.00710375 17.1022 0.00499736 17.2204 0.0395997 17.3329C0.074202 17.4454 0.130627 17.5499 0.205652 17.6406L2.10915 19.9546C2.18397 20.0456 2.276 20.1209 2.37997 20.1763C2.48394 20.2317 2.59781 20.266 2.71505 20.2773C2.8323 20.2886 2.95063 20.2767 3.06326 20.2422C3.17589 20.2077 3.28061 20.1513 3.37143 20.0763L20.9299 5.6142C21.0917 5.48381 21.2932 5.41271 21.501 5.41271C21.7087 5.41271 21.9102 5.48381 22.072 5.6142L39.6312 20.0763C39.7219 20.1513 39.8264 20.2078 39.9389 20.2424C40.0514 20.277 40.1696 20.2891 40.2867 20.278C40.4039 20.2669 40.5177 20.2328 40.6217 20.1777C40.7257 20.1226 40.8178 20.0476 40.8928 19.9569L42.7963 17.6428C42.8712 17.5516 42.9274 17.4465 42.9616 17.3336C42.9958 17.2206 43.0073 17.102 42.9955 16.9846C42.9837 16.8671 42.9488 16.7532 42.8929 16.6493C42.8369 16.5453 42.7609 16.4535 42.6694 16.379Z" fill="#8C7575"/>
</svg>
