<svg width="20" height="21" viewBox="0 0 20 21" fill="none" xmlns="http://www.w3.org/2000/svg">
<path d="M9.88805 6.74668C9.52415 6.75237 9.16296 6.81018 8.81547 6.91835C8.9762 7.20103 9.06178 7.52019 9.06404 7.84536C9.06404 8.09785 9.01431 8.34787 8.91769 8.58114C8.82106 8.81441 8.67944 9.02636 8.5009 9.2049C8.32236 9.38344 8.11041 9.52506 7.87714 9.62168C7.64387 9.71831 7.39385 9.76804 7.14136 9.76804C6.81619 9.76578 6.49703 9.6802 6.21436 9.51946C5.99134 10.2929 6.01733 11.117 6.28865 11.8748C6.55998 12.6327 7.06288 13.286 7.72612 13.7422C8.38936 14.1983 9.17932 14.4343 9.9841 14.4165C10.7889 14.3988 11.5677 14.1283 12.2102 13.6434C12.8527 13.1584 13.3263 12.4836 13.564 11.7145C13.8017 10.9455 13.7914 10.1211 13.5345 9.35819C13.2776 8.5953 12.7873 7.93256 12.1328 7.46386C11.4783 6.99516 10.693 6.74426 9.88805 6.74668ZM19.6566 10.0908C17.7947 6.45794 14.1087 4 9.88805 4C5.66742 4 1.98034 6.45966 0.119462 10.0911C0.0409212 10.2465 0 10.4181 0 10.5922C0 10.7663 0.0409212 10.938 0.119462 11.0933C1.98137 14.7261 5.66742 17.1841 9.88805 17.1841C14.1087 17.1841 17.7958 14.7244 19.6566 11.093C19.7352 10.9376 19.7761 10.766 19.7761 10.5919C19.7761 10.4178 19.7352 10.2461 19.6566 10.0908ZM9.88805 15.5361C6.50104 15.5361 3.39591 13.6477 1.71906 10.592C3.39591 7.53636 6.5007 5.64801 9.88805 5.64801C13.2754 5.64801 16.3802 7.53636 18.057 10.592C16.3805 13.6477 13.2754 15.5361 9.88805 15.5361Z" fill="black"/>
<path d="M3 19L17 2" stroke="black" stroke-width="3" stroke-linecap="round"/>
</svg>
