<svg width="22" height="22" viewBox="0 0 22 22" fill="none" xmlns="http://www.w3.org/2000/svg">
<path d="M21.5028 18.8501L17.2576 14.6049C17.066 14.4133 16.8063 14.3068 16.5338 14.3068H15.8397C17.0149 12.8038 17.7132 10.9132 17.7132 8.85662C17.7132 3.96419 13.749 0 8.85662 0C3.96419 0 0 3.96419 0 8.85662C0 13.749 3.96419 17.7132 8.85662 17.7132C10.9132 17.7132 12.8038 17.0149 14.3068 15.8397V16.5338C14.3068 16.8063 14.4133 17.066 14.6049 17.2576L18.8501 21.5028C19.2504 21.9031 19.8976 21.9031 20.2936 21.5028L21.4986 20.2978C21.8988 19.8976 21.8988 19.2504 21.5028 18.8501ZM8.85662 14.3068C5.84622 14.3068 3.40639 11.8713 3.40639 8.85662C3.40639 5.84622 5.84196 3.40639 8.85662 3.40639C11.867 3.40639 14.3068 5.84196 14.3068 8.85662C14.3068 11.867 11.8713 14.3068 8.85662 14.3068Z" fill="#8C7575"/>
</svg>
