<svg width="37" height="37" viewBox="0 0 37 37" fill="none" xmlns="http://www.w3.org/2000/svg">
<path d="M18.5 20.6733C24.2451 20.6733 28.9062 16.0434 28.9062 10.3367C28.9062 4.62996 24.2451 0 18.5 0C12.7549 0 8.09375 4.62996 8.09375 10.3367C8.09375 16.0434 12.7549 20.6733 18.5 20.6733ZM27.75 22.9704H23.7682C22.1639 23.7025 20.3789 24.1189 18.5 24.1189C16.6211 24.1189 14.8434 23.7025 13.2318 22.9704H9.25C4.14082 22.9704 0 27.0835 0 32.1585V33.307C0 35.2092 1.55371 36.7526 3.46875 36.7526H33.5312C35.4463 36.7526 37 35.2092 37 33.307V32.1585C37 27.0835 32.8592 22.9704 27.75 22.9704Z" fill="#8C7575"/>
</svg>
